<svg width="18" height="18" viewBox="0 0 18 18" fill="none" xmlns="http://www.w3.org/2000/svg">
<path d="M6.62704 3.50663C7.68288 1.61329 8.21038 0.666626 8.99954 0.666626C9.78871 0.666626 10.3162 1.61329 11.372 3.50663L11.6454 3.99663C11.9454 4.53496 12.0954 4.80413 12.3287 4.98163C12.562 5.15913 12.8537 5.22496 13.437 5.35663L13.967 5.47663C16.017 5.94079 17.0412 6.17246 17.2854 6.95663C17.5287 7.73996 16.8304 8.55746 15.4329 10.1916L15.0712 10.6141C14.6745 11.0783 14.4754 11.3108 14.3862 11.5975C14.297 11.885 14.327 12.195 14.387 12.8141L14.442 13.3783C14.6529 15.5591 14.7587 16.6491 14.1204 17.1333C13.482 17.6183 12.522 17.1758 10.6037 16.2925L10.1062 16.0641C9.56121 15.8125 9.28871 15.6875 8.99954 15.6875C8.71038 15.6875 8.43788 15.8125 7.89204 16.0641L7.39621 16.2925C5.47704 17.1758 4.51704 17.6175 3.87954 17.1341C3.24038 16.6491 3.34621 15.5591 3.55704 13.3783L3.61204 12.815C3.67204 12.195 3.70204 11.885 3.61204 11.5983C3.52371 11.3108 3.32454 11.0783 2.92788 10.615L2.56621 10.1916C1.16871 8.55829 0.470378 7.74079 0.713711 6.95663C0.957878 6.17246 1.98288 5.93996 4.03288 5.47663L4.56288 5.35663C5.14538 5.22496 5.43621 5.15913 5.67038 4.98163C5.90371 4.80413 6.05371 4.53496 6.35371 3.99663L6.62704 3.50663Z" fill="#CCB07A"/>
</svg>
